# xmcd CD database file
#
# Track frame offsets:
#	180
#	13965
#	28960
#	40013
#	56653
#	73066
#	88321
#	103337
#	118576
#	130097
#	145587
#	161092
#	172005
#	183210
#	194066
#
# Disc length: 2747 seconds
#
# Revision: 0
# Processed by: cddbd v1.5.1PL0 Copyright (c) Steve Scherf et al.
# Submitted via: CDex 1.51
#
DISCID=e10ab90f
DTITLE=Conjunto Michoacán - Lo Mejor del Norte CD A/C 
DYEAR=2004
DGENRE=Ranchero
TTITLE0=Piquetes de Hormiga
TTITLE1=Teresita, Teresita
TTITLE2=Porque Me Despreciaste
TTITLE3=El Alazan and El Ligero
TTITLE4=Las Holgazanas
TTITLE5=Sin Cariño
TTITLE6=Rompi La Botella
TTITLE7=Un Domingo Por La Tarde
TTITLE8=La Hija de La Viuda
TTITLE9=Los Sauzales
TTITLE10=La Viudita
TTITLE11=Las Dos Tumbas
TTITLE12=Mi Carmelita
TTITLE13=La Güera
TTITLE14=Me Haces Falta Tú
EXTD=YEAR: 2004
EXTT0=
EXTT1=
EXTT2=
EXTT3=
EXTT4=
EXTT5=
EXTT6=
EXTT7=
EXTT8=
EXTT9=
EXTT10=
EXTT11=
EXTT12=
EXTT13=
EXTT14=
PLAYORDER=
